<?xml version="1.0" standalone="no"?>
<!DOCTYPE svg PUBLIC "-//W3C//DTD SVG 20010904//EN"
 "http://www.w3.org/TR/2001/REC-SVG-20010904/DTD/svg10.dtd">
<svg version="1.0" xmlns="http://www.w3.org/2000/svg"
 width="640.000000pt" height="640.000000pt" viewBox="0 0 640.000000 640.000000"
 preserveAspectRatio="xMidYMid meet">
<metadata>
Created by potrace 1.11, written by Peter Selinger 2001-2013
</metadata>
<g transform="translate(0.000000,640.000000) scale(0.100000,-0.100000)"
fill="#000000" stroke="none">
<path d="M2403 5746 c-53 -17 -100 -56 -133 -110 -24 -40 -25 -46 -28 -278
l-3 -238 -343 0 c-317 0 -347 -1 -402 -20 -74 -25 -141 -84 -180 -160 l-29
-55 -3 -735 c-1 -404 -4 -740 -6 -746 -3 -6 -17 -14 -33 -18 -15 -4 -100 -30
-188 -58 -264 -84 -298 -101 -355 -183 -61 -88 -74 -224 -30 -320 18 -39 100
-127 391 -419 203 -204 369 -374 369 -378 0 -5 -16 -41 -36 -81 -163 -324
-423 -531 -779 -621 -123 -31 -150 -34 -295 -42 -138 -7 -194 -23 -242 -69
-65 -63 -73 -92 -73 -256 0 -164 4 -177 69 -247 58 -61 106 -73 270 -68 499
17 929 194 1258 519 73 73 68 74 113 -13 129 -255 413 -457 701 -499 93 -13
1501 -13 1574 0 144 26 277 80 390 157 58 40 180 155 220 207 40 53 61 86 93
149 l34 68 69 -67 c106 -105 246 -212 357 -274 20 -12 52 -29 70 -39 85 -48
260 -114 387 -147 73 -19 87 -21 248 -46 34 -5 123 -12 198 -15 170 -7 213 5
277 76 60 67 70 110 65 267 -6 142 -14 167 -76 228 -47 46 -105 62 -252 69
-63 4 -128 9 -145 11 -348 58 -616 213 -805 466 -51 69 -150 244 -150 266 0 5
164 174 365 375 411 412 418 420 421 547 1 82 -13 131 -59 199 -46 68 -111
102 -342 176 -115 37 -216 69 -222 71 -10 3 -13 157 -14 722 0 395 -3 732 -5
748 -17 105 -121 216 -226 241 -18 4 -36 9 -40 10 -5 1 -161 2 -348 3 l-340 1
0 213 c0 246 -8 290 -66 349 -76 79 -7 73 -874 75 -622 2 -783 -1 -817 -11z
m2077 -1701 c0 -239 -3 -435 -7 -435 -6 0 -350 108 -428 135 -22 8 -103 34
-180 59 -77 24 -241 77 -365 117 -303 99 -296 99 -610 -3 -129 -42 -246 -79
-260 -83 -14 -3 -34 -10 -45 -15 -11 -5 -121 -41 -245 -80 -124 -39 -265 -84
-313 -101 -49 -16 -93 -29 -98 -29 -5 0 -9 183 -9 435 l0 435 1280 0 1280 0 0
-435z"/>
</g>
</svg>
